<?xml version="1.0" standalone="no"?>
<!DOCTYPE svg PUBLIC "-//W3C//DTD SVG 20010904//EN"
 "http://www.w3.org/TR/2001/REC-SVG-20010904/DTD/svg10.dtd">
<svg version="1.0" xmlns="http://www.w3.org/2000/svg"
 width="1080.000000pt" height="1080.000000pt" viewBox="0 0 1080.000000 1080.000000"
 preserveAspectRatio="xMidYMid meet">
<metadata>
Created by potrace 1.14, written by Peter Selinger 2001-2017
</metadata>
<g transform="translate(0.000000,1080.000000) scale(0.100000,-0.100000)"
fill="#000000" stroke="none">
<path d="M348 9875 c-56 -15 -141 -63 -185 -105 -50 -47 -109 -140 -135 -211
l-23 -64 0 -4010 0 -4010 23 -85 c36 -138 70 -198 164 -293 86 -88 173 -145
258 -168 69 -18 8632 -18 8709 1 51 12 169 63 216 92 37 24 106 80 136 112 74
77 156 215 175 296 6 26 55 264 60 290 3 14 18 88 34 165 15 77 31 154 33 170
3 17 8 41 11 55 3 14 8 36 10 50 3 14 11 57 19 95 9 39 18 88 21 110 4 22 11
56 16 75 5 19 12 53 16 75 3 22 12 72 21 110 8 39 16 81 19 95 2 14 7 36 10
50 3 14 8 36 10 50 7 41 113 571 125 630 7 30 13 62 14 70 2 8 5 26 8 40 3 14
11 50 16 80 15 75 14 68 60 300 23 113 43 214 45 225 2 11 23 115 46 230 23
116 44 221 46 235 2 14 11 57 19 95 8 39 17 81 20 95 3 14 11 59 20 100 8 41
17 86 19 100 9 47 26 135 32 160 7 32 8 37 55 275 22 110 42 207 44 216 2 9 6
32 9 50 3 19 8 43 10 54 16 76 36 174 39 195 3 14 21 104 41 201 19 96 38 193
42 215 3 21 8 42 9 45 2 3 9 32 14 65 6 32 13 73 17 89 47 221 36 352 -40 481
-71 122 -189 206 -336 240 -14 3 -181 7 -372 8 -191 1 -349 4 -352 7 -3 2 -6
103 -7 223 -1 167 -6 238 -19 300 -39 179 -132 321 -273 417 -61 42 -167 87
-220 93 -18 2 -1239 4 -2713 5 l-2681 1 -31 123 c-17 67 -49 192 -72 277 -22
85 -56 223 -75 305 -72 307 -107 426 -157 535 -72 155 -168 247 -289 278 -58
15 -2673 12 -2731 -3z"/>
</g>
</svg>
